<?xml version="1.0" encoding="utf-8"?>
<!-- Generator: Adobe Illustrator 19.2.1, SVG Export Plug-In . SVG Version: 6.00 Build 0)  -->
<svg version="1.1" id="layer" xmlns="http://www.w3.org/2000/svg" xmlns:xlink="http://www.w3.org/1999/xlink" x="0px" y="0px"
	 viewBox="0 0 652 652" style="enable-background:new 0 0 652 652;" xml:space="preserve">
<style type="text/css">
	.st0{fill:#231F20;}
	.st1{fill:#92002C;}
	.st2{fill:none;stroke:#92002C;stroke-width:5.2723;}
</style>
<path class="st0" d="M37.2,342.7l5.6,12.5H32 M35.5,335.1l-14.8,34.7h5l4.3-10.2h14.7l4.6,10.2h5.1L39,335.1H35.5z"/>
<polyline class="st0" points="59.9,335.3 59.9,369.9 80.4,369.9 80.4,365.4 64.9,365.4 64.9,335.3 "/>
<path class="st0" d="M115.3,354.9c0,3.3,0,8.2-3.9,11.6c-3.1,2.7-6.9,3.7-10.9,3.7c-4.8,0-10.2-1.7-12.9-6c-1.9-3-1.9-7-1.9-9.4
	v-19.6h5v19.6c0,4.5,0.4,6.3,2.2,8.1c1.5,1.5,3.7,2.9,7.7,2.9c5.6,0,8-2.9,8.9-4.6c0.6-1.2,1-3,1-6.4v-19.6h4.9"/>
<polyline class="st0" points="156,369.9 151,369.9 151,343 140.4,356.4 139.5,356.4 128.8,343 128.8,369.9 123.9,369.9 123.9,335.3 
	128.5,335.3 140,349.5 151.4,335.3 156,335.3 "/>
<polyline class="st0" points="197.2,369.9 193,369.9 170,343.3 170,369.9 165.3,369.9 165.3,335.3 169.3,335.3 192.5,362.1 
	192.5,335.3 197.2,335.3 "/>
<rect x="206.9" y="335.3" class="st0" width="5" height="34.5"/>
<g>
	<path class="st0" d="M44.8,278.8c-2.8-1.6-5.9-2.6-9.1-2.6c-6.4,0-10.4,4.7-10.4,10c0,4.9,3.5,10,10.5,10c3.3,0,6.6-1.1,9.3-2.9
		v4.1c-3,1.7-6.2,2.3-9.6,2.3c-9.8,0-14.2-7.4-14.2-13.5c0-7.3,5.9-13.6,14.2-13.6c4,0,7.5,1.4,9.2,2.2"/>
	<path class="st0" d="M84.6,286.1c0,7.6-5.8,13.6-14.4,13.6c-8.3,0-13.9-6.1-13.9-13.5c0-7,5.1-13.6,14.1-13.6
		C79.1,272.6,84.6,279,84.6,286.1 M60.2,286.2c0,6,4.7,9.9,10.2,9.9c2.8,0,5.9-1.2,7.7-3.1c1.7-1.8,2.6-4.7,2.6-7
		c0-4.4-3.3-9.9-10.2-9.9C63.1,276.1,60.2,281.8,60.2,286.2"/>
</g>
<polyline class="st0" points="121.4,299.3 118.2,299.3 100.6,279 100.6,299.3 97,299.3 97,272.9 100.1,272.9 117.8,293.4 
	117.8,272.9 121.4,272.9 "/>
<g>
	<path class="st0" d="M157.2,278.8c-2.8-1.6-5.9-2.6-9.1-2.6c-6.4,0-10.4,4.7-10.4,10c0,4.9,3.5,10,10.5,10c3.3,0,6.6-1.1,9.3-2.9
		v4.1c-3,1.7-6.2,2.3-9.6,2.3c-9.8,0-14.2-7.4-14.2-13.5c0-7.3,5.9-13.6,14.2-13.6c4,0,7.5,1.4,9.2,2.2"/>
	<path class="st0" d="M197,286.1c0,7.6-5.8,13.6-14.4,13.6c-8.3,0-13.9-6.1-13.9-13.5c0-7,5.1-13.6,14.1-13.6
		C191.5,272.6,197,279,197,286.1 M172.6,286.2c0,6,4.7,9.9,10.2,9.9c2.8,0,5.9-1.2,7.7-3.1c1.7-1.8,2.6-4.7,2.6-7
		c0-4.4-3.3-9.9-10.2-9.9C175.5,276.1,172.6,281.8,172.6,286.2"/>
</g>
<path class="st0" d="M216,272.9c1.2,0,2.9,0.1,4.5,0.9c2.8,1.2,4.1,3.8,4.1,6.5c0,3.1-1.5,5.4-4.4,6.5c2.4,1.6,3.9,4,5.9,7.3
	c1.1,1.8,1.8,2.7,3.6,5.3h-4.5c-0.9-1.3-4.6-7-5.4-8.2c-2.6-3.3-3.9-3.3-5.7-3.3h-1v11.5h-3.7v-26.4 M213.2,276.1v8.3h1.5
	c0.6,0,2.6,0,3.7-0.4c1.8-0.7,2.5-2.4,2.5-3.8c0-1.5-0.8-2.9-2-3.5c-1-0.5-2.2-0.6-4.5-0.6H213.2z"/>
<path class="st0" d="M249.3,272.9c2.5,0,6.8,0,10.3,2.7c2.9,2.2,5.1,6,5.1,10.5c0,6.7-4.7,10.2-6.3,11.2c-3.2,2-6.8,2-9.5,2h-8.3
	v-26.4 M244.1,276.3v19.6h4.9c2,0,5.1-0.2,7.3-1.5c2.7-1.7,4.4-4.9,4.4-8.5c0-3.2-1.5-6.9-5.5-8.7c-2.2-1-3.9-1-6.3-1H244.1z"/>
<rect x="277.1" y="272.9" class="st0" width="3.8" height="26.4"/>
<path class="st0" d="M317.2,299.3h-3.9l-3.5-7.8h-11.2l-3.3,7.8h-3.9l11.3-26.6h2.7 M308.3,288.1l-4.2-9.6l-3.9,9.6H308.3z"/>
<path class="st0" d="M368.4,287.9c0,2.6,0,6.2-3,8.9c-2.4,2.1-5.3,2.9-8.3,2.9c-3.7,0-7.8-1.3-9.9-4.6c-1.5-2.3-1.5-5.4-1.5-7.2v-15
	h3.8v15c0,3.5,0.3,4.8,1.7,6.2c1.1,1.2,2.9,2.2,5.9,2.2c4.2,0,6.1-2.2,6.8-3.5c0.5-0.9,0.7-2.3,0.7-4.9v-15h3.7"/>
<polyline class="st0" points="405.9,299.3 402.6,299.3 385,279 385,299.3 381.5,299.3 381.5,272.9 384.5,272.9 402.3,293.4 
	402.3,272.9 405.9,272.9 "/>
<rect x="419.3" y="272.9" class="st0" width="3.8" height="26.4"/>
<polyline class="st0" points="445.9,299.5 445,299.5 433.7,272.9 437.5,272.9 445.4,291.5 453.3,272.9 457,272.9 "/>
<polyline class="st0" points="482.6,276.3 471.4,276.3 471.4,284.3 482.2,284.3 482.2,287.7 471.4,287.7 471.4,295.9 482.9,295.9 
	482.9,299.3 467.6,299.3 467.6,272.9 482.6,272.9 "/>
<path class="st0" d="M502.2,272.9c1.2,0,2.9,0.1,4.5,0.9c2.8,1.2,4.1,3.8,4.1,6.5c0,3.1-1.5,5.4-4.4,6.5c2.4,1.6,3.9,4,5.9,7.3
	c1.1,1.8,1.8,2.7,3.6,5.3h-4.5c-0.9-1.3-4.6-7-5.4-8.2c-2.6-3.3-3.9-3.3-5.7-3.3h-1v11.5h-3.7v-26.4 M499.3,276.1v8.3h1.5
	c0.6,0,2.6,0,3.7-0.4c1.8-0.7,2.5-2.4,2.5-3.8c0-1.5-0.8-2.9-2-3.5c-1-0.5-2.2-0.6-4.5-0.6H499.3z"/>
<g>
	<path class="st0" d="M539,278.7c-2.2-2.2-4.4-2.7-6.2-2.7c-2.6,0-4.2,1.4-4.2,3.1c0,2.2,1.5,3.2,6.6,6.1c1.1,0.7,2.4,1.6,3.4,2.9
		c0.8,1,1.4,2.5,1.4,4.4c0,4.1-3,7.2-7.6,7.2c-2.6,0-5.1-0.9-7.1-2.4v-4.8c0.8,1,3.1,3.9,7.1,3.9c2,0,4.1-1.2,4.1-3.5
		c0-2.2-2.2-3.8-3.5-4.6c-4.2-2.5-5.4-3.3-6.5-4.7c-0.8-1-1.3-2.3-1.3-3.9c0-4,3-7,7.8-7c2.2,0,4.2,0.7,6.1,1.9"/>
</g>
<rect x="551.9" y="272.9" class="st0" width="3.8" height="26.4"/>
<polyline class="st0" points="589,276.2 579.8,276.2 579.8,299.3 576,299.3 576,276.2 567,276.2 567,272.9 589,272.9 "/>
<polyline class="st0" points="611,285.3 611,299.3 607.1,299.3 607.1,285.3 597.4,272.9 601.9,272.9 609,282 616.2,272.9 
	620.7,272.9 "/>
<path class="st0" d="M311.1,369.9h-5l-4.6-10.2h-14.7l-4.3,10.2h-5l14.8-34.7h3.5 M299.4,355.2l-5.6-12.5l-5.2,12.5H299.4z"/>
<path class="st0" d="M333.3,342.9c-2.9-2.8-5.8-3.6-8.1-3.6c-3.4,0-5.5,1.8-5.5,4c0,2.9,2,4.2,8.6,8c1.5,0.9,3.1,2.1,4.4,3.9
	c1.1,1.4,1.9,3.2,1.9,5.7c0,5.4-3.9,9.4-10,9.4c-3.4,0-6.6-1.2-9.3-3.2v-6.3c1,1.3,4.1,5.1,9.3,5.1c2.6,0,5.4-1.6,5.4-4.6
	c0-2.9-2.9-5-4.5-6c-5.5-3.3-7-4.3-8.5-6.2c-1.1-1.4-1.7-3-1.7-5.2c0-5.2,3.9-9.2,10.1-9.2c2.8,0,5.6,0.9,7.9,2.4"/>
<path class="st0" d="M357.9,342.9c-2.9-2.8-5.8-3.6-8.1-3.6c-3.4,0-5.5,1.8-5.5,4c0,2.9,2,4.2,8.6,8c1.5,0.9,3.1,2.1,4.4,3.9
	c1.1,1.4,1.9,3.2,1.9,5.7c0,5.4-3.9,9.4-10,9.4c-3.4,0-6.6-1.2-9.3-3.2v-6.3c1,1.3,4.1,5.1,9.3,5.1c2.6,0,5.3-1.6,5.3-4.6
	c0-2.9-2.9-5-4.5-6c-5.5-3.3-7-4.3-8.5-6.2c-1.1-1.4-1.7-3-1.7-5.2c0-5.2,3.9-9.2,10.1-9.2c2.8,0,5.6,0.9,7.9,2.4"/>
<path class="st0" d="M401.7,352.6c0,9.9-7.6,17.8-18.8,17.8c-10.8,0-18.2-8-18.2-17.6c0-9.2,6.7-17.8,18.4-17.8
	C394.6,334.9,401.7,343.3,401.7,352.6 M369.8,352.7c0,7.8,6.2,13,13.4,13c3.7,0,7.7-1.5,10.1-4.1c2.2-2.4,3.4-6.1,3.4-9.1
	c0-5.7-4.3-13-13.3-13C373.7,339.5,369.8,346.9,369.8,352.7"/>
<path class="st0" d="M438.6,343c-3.6-2.1-7.7-3.4-11.9-3.4c-8.3,0-13.6,6.2-13.6,13.1c0,6.4,4.5,13,13.7,13c4.3,0,8.6-1.5,12.2-3.8
	v5.4c-4,2.2-8.1,3-12.5,3c-12.8,0-18.5-9.6-18.5-17.7c0-9.5,7.7-17.8,18.6-17.8c5.3,0,9.9,1.9,12.1,2.8"/>
<rect x="446.6" y="335.3" class="st0" width="5" height="34.5"/>
<path class="st0" d="M490.6,369.9h-5l-4.6-10.2h-14.6l-4.3,10.2h-5l14.8-34.7h3.5 M478.9,355.2l-5.6-12.5l-5.2,12.5H478.9z"/>
<polyline class="st0" points="516.7,339.7 504.7,339.7 504.7,369.9 499.7,369.9 499.7,339.7 487.9,339.7 487.9,335.3 516.7,335.3 
	"/>
<rect x="522.9" y="335.3" class="st0" width="5" height="34.5"/>
<path class="st0" d="M572.5,352.6c0,9.9-7.6,17.8-18.8,17.8c-10.8,0-18.2-8-18.2-17.6c0-9.2,6.7-17.8,18.4-17.8
	C565.4,334.9,572.5,343.3,572.5,352.6 M540.6,352.7c0,7.8,6.2,13,13.4,13c3.7,0,7.7-1.5,10.1-4.1c2.2-2.4,3.4-6.1,3.4-9.1
	c0-5.7-4.3-13-13.3-13C544.4,339.5,540.6,346.9,540.6,352.7"/>
<polyline class="st0" points="612.1,369.9 607.9,369.9 584.8,343.3 584.8,369.9 580.2,369.9 580.2,335.3 584.2,335.3 607.4,362.1 
	607.4,335.3 612.1,335.3 "/>
<path class="st1" d="M262.1,341c0,0-0.2,0.1-0.6,0.3c-1.4,0.5-7.3,2.6-8.5,2.9l0,0c0.2-0.3,0.4-0.5,0.5-0.8c0.9-1.1,1.8-2.5,3.2-3.5
	c-1.7,1.2-3.4,2.7-5.6,3.8c0.1-1.6,0.8-3.1,1.4-4.7c-0.4,1.1-1.6,2.2-2.4,3.2c-0.3,0.4-0.7,0.7-1.1,1.1c-0.8-1.5-1.1-3.2-1.1-4.7
	c0,1.5-0.3,3.2-1.1,4.7c-0.3-0.3-0.6-0.6-0.9-0.9c-0.9-1.1-2.2-2.3-2.6-3.5c0.6,1.5,1.3,3.1,1.4,4.6c-0.6-0.3-1.1-0.6-1.6-0.9
	c-1.4-0.9-3.1-1.8-4-2.8c1.3,1.4,2.8,2.8,3.7,4.3l0,0c-1.3-0.4-7.3-2.5-8.6-3.2L234,341c0,0,0.1,0.1,0.6,0.4
	c-0.3-0.2-0.5-0.3-0.5-0.3S234,341,234,341l3.5,15.6c0,0,3.3,3.9,10,7.1v-15.2c0.3,0.1,0.5,0.1,0.5,0.2c0,0,0.2,0,0.5-0.1v15.2
	c0.1-0.1,0.3-0.1,0.4-0.2c0.1-0.1,0.2-0.1,0.3-0.2v-15c2-0.6,6.2-2.2,11.4-6c-0.1,1.1-0.4,4.5-1,8.3"/>
<line class="st0" x1="24.6" y1="318.1" x2="613.1" y2="318.1"/>
<g>
	<line class="st2" x1="24.6" y1="318.1" x2="613.1" y2="318.1"/>
</g>
</svg>
